# xmcd
#
# Track frame offsets:
#	150
#	15192
#	28737
#	52850
#	72102
#	90352
#	108560
#	124230
#	144157
#	164392
#	174625
#	195555
#
# Disc length: 2844 seconds
#
# Revision: 0
# Processed by: cddbd v1.5.1PL2 Copyright (c) Steve Scherf et al.
# Submitted via: dBpowerAMP V4.0
#
DISCID=910b1a0c
DTITLE=smilers - olen kuul
DYEAR=1997
DGENRE=Slow Rock
TTITLE0=lähme sõidame (minu auto)
TTITLE1=viis kasti õlut
TTITLE2=olen kuul
TTITLE3=kui sa tahad sexy
TTITLE4=sinust ma mööda ei saa
TTITLE5=suvine pärastlõuna
TTITLE6=tahan sind
TTITLE7=lendaval vaibal
TTITLE8=nüüd on nii hea
TTITLE9=anna 1 veel
TTITLE10=täna õhtul
TTITLE11=kellele lüüakse aisakella
EXTD=by dandee
EXTT0=
EXTT1=
EXTT2=
EXTT3=
EXTT4=
EXTT5=
EXTT6=
EXTT7=
EXTT8=
EXTT9=
EXTT10=
EXTT11=
PLAYORDER=
